<svg xmlns="http://www.w3.org/2000/svg" viewBox="0 0 64 64">
  <defs>
    <linearGradient id="g" x1="0%" y1="0%" x2="100%" y2="100%">
      <stop offset="0%" stop-color="#0ea5e9"/>
      <stop offset="100%" stop-color="#0284c7"/>
    </linearGradient>
  </defs>
  <rect width="64" height="64" rx="12" fill="url(#g)"/>
  <g fill="#fff" opacity="0.95">
    <path d="M20 18h24c1.1 0 2 .9 2 2v24c0 1.1-.9 2-2 2H20c-1.1 0-2-.9-2-2V20c0-1.1.9-2 2-2zm2 6v16h20V24H22z"/>
    <path d="M26 28h4v4h-4zm8 0h4v4h-4zm-8 8h4v4h-4zm8 0h4v4h-4z"/>
  </g>
</svg>
